<svg id="visual" viewBox="0 0 675 900" width="675" height="900" xmlns="http://www.w3.org/2000/svg" xmlns:xlink="http://www.w3.org/1999/xlink" version="1.1"><rect x="0" y="0" width="675" height="900" fill="#002233"></rect><path d="M0 640L16 652.8C32 665.7 64 691.3 96.2 697.2C128.3 703 160.7 689 192.8 671.8C225 654.7 257 634.3 289.2 624.7C321.3 615 353.7 616 385.8 626.7C418 637.3 450 657.7 482.2 666.8C514.3 676 546.7 674 578.8 662.3C611 650.7 643 629.3 659 618.7L675 608L675 901L659 901C643 901 611 901 578.8 901C546.7 901 514.3 901 482.2 901C450 901 418 901 385.8 901C353.7 901 321.3 901 289.2 901C257 901 225 901 192.8 901C160.7 901 128.3 901 96.2 901C64 901 32 901 16 901L0 901Z" fill="#0066FF" stroke-linecap="round" stroke-linejoin="miter"></path></svg>